# xmcd
#
# Track frame offsets:
#	150
#	19135
#	33606
#	45015
#	58412
#	72181
#	88986
#	97677
#	111104
#	122419
#	141253
#	155686
#
# Disc length: 2286 seconds
#
# Revision: 1
# Processed by: cddbd v1.4b41PL1 Copyright (c) Steve Scherf et al.
# Submitted via: audiograbber 1.80
#
DISCID=9d08ec0c
DTITLE=Yardsale - Sweet Pea
DYEAR=1900
DGENRE=
TTITLE0=Grand Forks
TTITLE1=Lunch Money
TTITLE2=Never Work This Town Again
TTITLE3=If You Get There (Before I Do)
TTITLE4=Disappearing
TTITLE5=Creosote
TTITLE6=Been Here Long Enough
TTITLE7=Awake Like This
TTITLE8=Had A Flash
TTITLE9=Sweet Pea
TTITLE10=You Stir Me
TTITLE11=Crowsfeet
EXTD=
EXTT0=
EXTT1=
EXTT2=
EXTT3=
EXTT4=
EXTT5=
EXTT6=
EXTT7=
EXTT8=
EXTT9=
EXTT10=
EXTT11=
PLAYORDER=
